<?xml version="1.0" encoding="UTF-8" standalone="no"?>
<!-- Created with Inkscape (http://www.inkscape.org/) -->

<svg
   xmlns:dc="http://purl.org/dc/elements/1.1/"
   xmlns:cc="http://creativecommons.org/ns#"
   xmlns:rdf="http://www.w3.org/1999/02/22-rdf-syntax-ns#"
   xmlns:svg="http://www.w3.org/2000/svg"
   xmlns="http://www.w3.org/2000/svg"
   xmlns:sodipodi="http://sodipodi.sourceforge.net/DTD/sodipodi-0.dtd"
   xmlns:inkscape="http://www.inkscape.org/namespaces/inkscape"
   version="1.0"
   width="600"
   height="300"
   id="svg1946"
   sodipodi:version="0.32"
   inkscape:version="0.47 r22583"
   sodipodi:docname="splash.svg"
   inkscape:export-filename="/media/mini/nbprojects/autoplot2010/VirboAutoplot/src/splash.png"
   inkscape:export-xdpi="300"
   inkscape:export-ydpi="300"
   inkscape:output_extension="org.inkscape.output.svg.inkscape">
  <metadata
     id="metadata11">
    <rdf:RDF>
      <cc:Work
         rdf:about="">
        <dc:format>image/svg+xml</dc:format>
        <dc:type
           rdf:resource="http://purl.org/dc/dcmitype/StillImage" />
        <dc:title></dc:title>
      </cc:Work>
    </rdf:RDF>
  </metadata>
  <sodipodi:namedview
     inkscape:window-height="936"
     inkscape:window-width="1504"
     inkscape:pageshadow="2"
     inkscape:pageopacity="0.0"
     guidetolerance="10.0"
     gridtolerance="10.0"
     objecttolerance="10.0"
     borderopacity="1.0"
     bordercolor="#666666"
     pagecolor="#ffffff"
     id="base"
     inkscape:zoom="6.95973"
     inkscape:cx="212.35548"
     inkscape:cy="157.21302"
     inkscape:window-x="1619"
     inkscape:window-y="96"
     inkscape:current-layer="svg1946"
     showgrid="false"
     inkscape:window-maximized="0" />
  <defs
     id="defs1958">
    <inkscape:perspective
       sodipodi:type="inkscape:persp3d"
       inkscape:vp_x="0 : 150 : 1"
       inkscape:vp_y="0 : 1000 : 0"
       inkscape:vp_z="600 : 150 : 1"
       inkscape:persp3d-origin="300 : 100 : 1"
       id="perspective31" />
    <inkscape:perspective
       id="perspective2860"
       inkscape:persp3d-origin="0.5 : 0.33333333 : 1"
       inkscape:vp_z="1 : 0.5 : 1"
       inkscape:vp_y="0 : 1000 : 0"
       inkscape:vp_x="0 : 0.5 : 1"
       sodipodi:type="inkscape:persp3d" />
  </defs>
  <rect
     style="fill:#000000;fill-opacity:1;fill-rule:evenodd;stroke:#000000;stroke-width:0.49432859;stroke-miterlimit:4;stroke-opacity:1;stroke-dasharray:none"
     id="rect2226"
     width="128.83421"
     height="47.436237"
     x="119.38284"
     y="117.9955"
     inkscape:export-filename="N:\nbprojects\virbo\VirboAutoplot\src\splash.png"
     inkscape:export-xdpi="300.00009"
     inkscape:export-ydpi="300.00009" />
  <path
     id="path2166"
     style="fill:#ffff00;fill-opacity:1;fill-rule:evenodd;stroke:none"
     d="m 153.18067,130.73207 -3.57041,5.07583 -4.09065,-3.02327 -18.68942,26.57144 -3.7421,-2.52225 19.42654,-26.14131 -5.59362,-3.51096 6.73664,-3.13532 9.52302,6.68584 z" />
  <flowRoot
     xml:space="preserve"
     id="flowRoot2184"><flowRegion
       id="flowRegion2186"><rect
         id="rect2188"
         width="793.6073"
         height="162.55708"
         x="28.310503"
         y="15.068493" /></flowRegion><flowPara
       id="flowPara2190" /></flowRoot>  <path
     id="path5304"
     style="fill:#ffff00;fill-opacity:1;fill-rule:evenodd;stroke:none"
     d="m 134.20511,130.82779 3.57041,5.07584 4.09065,-3.02326 18.68942,26.57143 3.7421,-2.52225 -19.42654,-26.1413 5.59361,-3.51096 -6.73663,-3.13533 -9.52302,6.68583 z" />
  <path
     style="fill:none;stroke:#ffff00;stroke-width:0.73201138;stroke-linecap:butt;stroke-linejoin:miter;stroke-miterlimit:4;stroke-opacity:1;stroke-dasharray:none"
     d="m 135.03706,145.42595 c 0.005,0.004 0.0235,1.4311 0.23818,1.81617 0.33391,0.59907 0.35995,0.85706 0.83364,1.282 0.51431,0.46138 0.68253,0.34922 1.07181,0 0.39812,-0.35714 0.39387,1.09284 0.47636,1.38883 0.18916,0.67875 0.38804,1.17874 0.59544,1.923 0.1888,0.67745 0.35926,0.96283 0.83364,1.28201 0.42643,0.28689 0.62412,0.54058 1.07181,0.64099 0.56521,0.12676 0.47637,-1.39086 0.47637,-1.60251 0,-0.70787 0.63136,-0.57952 1.30999,-0.42732 0.0725,0.0163 0,1.71317 0,1.923 0,0.67661 0,1.35322 0,2.02983 0,0.72869 0.005,0.85466 0.83364,0.85466 0.29568,0 0.23818,-1.39 0.23818,-1.6025 0,-0.69398 -0.0435,-1.23004 0.35727,-1.70933 0.1499,-0.1793 0.11908,-1.37324 0.11908,-1.6025 0,-0.36633 0.57119,-0.81113 0.71454,-1.06833 0.2334,-0.41874 0.60882,-0.42733 1.31,-0.42733 0.98021,0 0.71454,-0.48278 0.71454,-1.28201 0,-0.56977 0,-1.13954 0,-1.70932 0,-0.58241 0.11909,-1.04832 0.11909,-1.60251 0,-0.58911 0.64173,-0.84429 1.07182,-0.74784 0.0655,0.0147 0,1.64343 0,1.81617 0,0.56978 0,1.13956 0,1.70934 0,0.79897 0.19899,1.03318 0.71454,1.49567 0.59575,0.53442 0.35728,-0.12958 0.35728,-0.74783 0,-0.80263 0.11909,-1.53772 0.11909,-2.35034 0,-0.70244 0.0911,-1.07479 0.23816,-1.6025 0.27437,-0.98449 1.26397,0.49288 1.54818,0.74783 0.33554,0.30101 0.11909,1.70227 0.11909,2.13666 0,0.82432 0.29985,0.74022 0.47637,0.10683 0.16385,-0.58795 -0.0585,-1.07026 0.23817,-1.60251 0.48446,-0.86918 0.77736,-0.11976 1.07182,0.32051 0.2892,0.43239 0.23818,1.14781 0.23818,1.81616 0,0.59951 -0.27571,1.28199 0.47636,1.28199 0.88979,0 0.95272,0.0785 0.95272,0.85467 0,1.04553 0.11909,-0.47505 0.11909,-0.85467 0,-0.14244 0,-0.28489 0,-0.42732"
     id="path4232" />
  <text
     xml:space="preserve"
     style="font-size:5.80585241px;font-style:normal;font-variant:normal;font-weight:normal;font-stretch:normal;text-align:start;line-height:125%;writing-mode:lr-tb;text-anchor:start;fill:#ffff00;fill-opacity:1;stroke:none;font-family:Bitstream Vera Sans"
     x="168.77007"
     y="128.19238"
     id="text8128"
     sodipodi:linespacing="125%"><tspan
       sodipodi:role="line"
       id="tspan1942"
       x="168.77007"
       y="128.19238"
       style="font-size:9px">Autoplot</tspan><tspan
       sodipodi:role="line"
       id="tspan1944"
       x="168.77007"
       y="139.44238" /><tspan
       sodipodi:role="line"
       id="tspan1948"
       x="168.77007"
       y="150.69238" /></text>
  <text
     xml:space="preserve"
     style="font-size:3px;font-style:normal;font-variant:normal;font-weight:normal;font-stretch:normal;text-align:start;line-height:125%;writing-mode:lr-tb;text-anchor:start;fill:#ffff00;font-family:Bitstream Vera Sans"
     x="168.54324"
     y="149.78989"
     id="text1976"
     sodipodi:linespacing="125%"
     inkscape:export-filename="/media/mini/nbprojects/autoplot2010/VirboAutoplot/src/splash.png"
     inkscape:export-xdpi="300"
     inkscape:export-ydpi="300"><tspan
       sodipodi:role="line"
       x="168.54324"
       y="149.78989"
       id="tspan2880">Autoplot was developed with support or code </tspan><tspan
       sodipodi:role="line"
       x="168.54324"
       y="153.53989"
       id="tspan2882">contributions from NASA Virtual Observatories for </tspan><tspan
       sodipodi:role="line"
       x="168.54324"
       y="157.28989"
       id="tspan2920">Heliophysics, RBSP instrument teams, and the </tspan><tspan
       sodipodi:role="line"
       x="168.54324"
       y="161.03989"
       id="tspan2965">Plasma Wave Group at The University of Iowa.</tspan></text>
  <text
     xml:space="preserve"
     style="font-size:4px;font-style:normal;font-weight:normal;fill:#ffff00;fill-opacity:1;stroke:none;font-family:Bitstream Vera Sans"
     x="168.22038"
     y="133.86711"
     id="text2008"><tspan
       sodipodi:role="line"
       id="tspan2010"
       x="168.22038"
       y="133.86711">a browser for data on the web</tspan></text>
  <text
     xml:space="preserve"
     style="font-size:3px;font-style:normal;font-variant:normal;font-weight:normal;font-stretch:normal;text-align:start;line-height:125%;writing-mode:lr-tb;text-anchor:start;fill:#ffff00;font-family:Bitstream Vera Sans"
     x="168.59581"
     y="139.87341"
     id="text1976-2"
     sodipodi:linespacing="125%"
     inkscape:export-filename="/media/mini/nbprojects/autoplot2010/VirboAutoplot/src/splash.png"
     inkscape:export-xdpi="300"
     inkscape:export-ydpi="300"><tspan
       sodipodi:role="line"
       x="168.59581"
       y="139.87341"
       id="tspan2920-9">J. Faden [cottagesystems.com]</tspan><tspan
       sodipodi:role="line"
       x="168.59581"
       y="143.62341"
       id="tspan2903">R. S. Weigel [virbo.org]</tspan></text>
  <text
     xml:space="preserve"
     style="font-size:3px;font-style:normal;font-weight:normal;fill:#000000;fill-opacity:1;stroke:none;font-family:Bitstream Vera Sans"
     x="147.70688"
     y="118.24008"
     id="text2905"><tspan
       sodipodi:role="line"
       id="tspan2907"></tspan></text>
</svg>
